/* XPM */
static char *result[] = {
/* columns rows colors chars-per-pixel */
"18 18 4 1 ",
"  c #345551",
". c #36E377",
"X c #2EB082",
"o c None",
/* pixels */
"oooooooooo    oooo",
"oo              oo",
"o          XX    o",
"o  X.......XX.X  o",
"o  ............  o",
"o  ..XXXXXXXX..  o",
"   XXXXXXX.XXXX  o",
"  ..XXXXXXXXXXX  o",
"  ..X.XXXXXXXXX  o",
"   XXXXXXXXXX.X  o",
"o  X.XXXXXXXXXX   ",
"o  XXXXXXXXXXX..  ",
"o  XXXXXXXXXXX..  ",
"o  XXXXXXXXX.XX   ",
"o  XX..XXXXXXXX  o",
"o    ..          o",
"oo              oo",
"oooo    oooooooooo"
};
