/* XPM */
static char *_a42832ab05c4ca3fc991a473c8787cdGPGTtL7Omtar3IFT[] = {
/* columns rows colors chars-per-pixel */
"18 18 6 1 ",
"  c None",
". c #9F5A52",
"X c #CB815E",
"o c #36E377",
"O c #2EB082",
"+ c #345551",
/* pixels */
"       ++++       ",
"      ++++++      ",
"      ++oo++      ",
"     +++oo+++     ",
"     ++OOOO++     ",
"     ++oooo++     ",
"    +++oooo+++    ",
"    ++OOOOOO++    ",
"    ++OOOOOO++    ",
"    ++oooooo++    ",
"   +++oooooo+++   ",
"   ++OOOOOOOO++   ",
"   ++OOOOOOOO++   ",
"   ++OOOOOOOO++   ",
"   +++++..+++++   ",
"    ++++XX++++    ",
"      ++XX++      ",
"      ++XX++      "
};
