/* XPM */
static char *result[] = {
/* columns rows colors chars-per-pixel */
"32 32 3 1 ",
"  c #434A5F",
". c #2EB082",
"X c white",
/* pixels */
"................................",
"................................",
"................................",
"................................",
"...........          ...........",
".........            ...........",
".........            ...........",
".......     XXXXXX   ...........",
".......     XXXXXX   ...........",
".......    XXXXXXX   ...........",
".......    XXXXXXX   ...........",
".......    XXXXXXX   ...........",
".......       XXXX   ...........",
".......       XXXX   ...........",
".......       XXXX   ...........",
".......       XXXX   ...........",
"...........   XXXX   ...........",
"...........   XXXX   ...........",
".......       XXXX       .......",
".......       XXXX       .......",
".......       XXXX       .......",
".......    XXXXXXXXXX    .......",
".......    XXXXXXXXXX    .......",
".......    XXXXXXXXXX    .......",
".......    XXXXXXXXXX    .......",
".......                  .......",
".......                  .......",
".......                  .......",
"................................",
"................................",
"................................",
"................................"
};
