/* XPM */
static char *result[] = {
/* columns rows colors chars-per-pixel */
"32 32 3 1 ",
"  c #434A5F",
". c #2EB082",
"X c white",
/* pixels */
"................................",
"................................",
"................................",
"................................",
".....           ................",
".....           ................",
".....           ................",
".....    XXX    ................",
".....    XXX    ................",
".....    XXX    ................",
".....    XXX    ................",
".....    XXX           .........",
".....    XXX             .......",
".....    XXX             .......",
".....    XXXXXXXXXXXX      .....",
".....    XXXXXXXXXXXX      .....",
".....    XXXXXXXXXXXXXX    .....",
".....    XXXXXXXXXXXXXX    .....",
".....    XXX        XXX    .....",
".....    XXX        XXX    .....",
".....    XXX        XXX    .....",
".....    XXXXXXXXXXXXXX    .....",
".....    XXXXXXXXXXXXXX    .....",
".....      XXXXXXXXXX      .....",
".....      XXXXXXXXXX      .....",
".......                  .......",
".......                  .......",
".........              .........",
"................................",
"................................",
"................................",
"................................"
};
