/* XPM */
static char *result[] = {
/* columns rows colors chars-per-pixel */
"32 32 3 1 ",
"  c #434A5F",
". c #2EB082",
"X c white",
/* pixels */
"................................",
"................................",
"................................",
"................................",
".........              .........",
".......                  .......",
".......                  .......",
".....      XXXXXXXXXX      .....",
".....      XXXXXXXXXX      .....",
".....    XXXXXXXXXXXXXX    .....",
".....    XXXXXXXXXXXXXX    .....",
".....    XXX        XXX    .....",
".....    XXX        XXX    .....",
".....    XXX        XXX    .....",
".....    XXXXXXXXXXXXXX    .....",
".....    XXXXXXXXXXXXXX    .....",
".....      XXXXXXXXXXXX    .....",
".....      XXXXXXXXXXXX    .....",
".......             XXX    .....",
".......             XXX    .....",
".........           XXX    .....",
"................    XXX    .....",
"................    XXX    .....",
"................    XXX    .....",
"................    XXX    .....",
"................           .....",
"................           .....",
"................           .....",
"................................",
"................................",
"................................",
"................................"
};
