/* XPM */
static char *result[] = {
/* columns rows colors chars-per-pixel */
"32 32 12 1 ",
"  c #323443",
". c #23787E",
"X c #36A57C",
"o c #BC6D9F",
"O c #2EB082",
"+ c #5FD194",
"@ c #E39B89",
"# c #E79AB4",
"$ c #FDCAAB",
"% c #FAD2D7",
"& c #FFE3C6",
"* c white",
/* pixels */
"OOOOOOOOOOOOOOOOOOOOOOOOOOOOOOOO",
"OOOOOOOOOOOOOOOOOOOOOOOOOOOOOOOO",
"OOOOOOOOOOOOOOOOOOOOOOOOOOOOOOOO",
"OOOOOOOOOOOOOOOOOOOOOOOOOOOOOOOO",
"OOOOOOOOOOOOOOOOOOOOOOOOOOOOOOOO",
"OOOOOOOOOOOO        OOOOOOOOOOOO",
"OOOOOOOOOOO X .XXXX. OOOOOOOOOOO",
"OOOOOOOOOO XXXXXXXXX. OOOOOOOOOO",
"OOOOOOOOOO XXX+XXXXX. OOOOOOOOOO",
"OOOOOOOOOO XXXXXXX... OOOOOOOOOO",
"OOOOOOOOOO XXXXXXXXXX OOOOOOOOOO",
"OOOOOOOOOO *  . X  *. OOOOOOOOOO",
"OOOOOOOOOOX. X.XX X.. OOOOOOOOOO",
"OOOOOOOOOO          . OOOOOOOOOO",
"OOOOOOOOOO #%%#%%## . OOOOOOOOOO",
"OOOOOOOOOO# ***** #o. OOOOOOOOOO",
"OOOOOOOOOOoo     oo . OOOOOOOOOO",
"OOOOOOOOOO  @@@@@   . OOOOOOOOOO",
"OOOOOOOOOO @@@$@@ XXX OOOOOOOOOO",
"OOOOOOOOOO @$$$$@ XX. OOOOOOOOOO",
"OOOOOOOOOO $&&$$$ XX  OOOOOOOOOO",
"OOOOOOOOOO $&&$$$ XXX OOOOOOOOOO",
"OOOOOOOOOO $&$$$$ XXXX   OOOOOOO",
"OOOOOOOOOO @$$$@@ X XX.  OOOOOOO",
"OOOOOOOOOO @$$$@@ XX   OOOOOOOOO",
"OOOOOOOOOO @        . OOOOOOOOOO",
"OOOOOOOOOO            OOOOOOOOOO",
"OOOOOOOOOO            OOOOOOOOOO",
"OOOOOOOOOO            OOOOOOOOOO",
"OOOOOOOOOO            OOOOOOOOOO",
"OOOOOOOOOO    OOOO    OOOOOOOOOO",
"OOOOOOOOOOO   OOOOO   OOOOOOOOOO"
};
