/* XPM */
static char *result[] = {
/* columns rows colors chars-per-pixel */
"32 32 11 1 ",
"  c #323443",
". c #23787E",
"X c #36A57C",
"o c #BC6D9F",
"O c #2EB082",
"+ c #5FD194",
"@ c #E39B89",
"# c #E79AB4",
"$ c #FDCAAB",
"% c #FFE3C6",
"& c white",
/* pixels */
"OOOOOOOOOOOOOOOOOOOOOOOOOOOOOOOO",
"OOOOOOOOOOO        OOOOOOOOOOOOO",
"OOOOOOOOOO X .XXXX. OOOOOOOOOOOO",
"OOOOOOOOO XXXXXXXXX. OOOOOOOOOOO",
"OOOOOOOOO XXX++XXXXX OOOOOOOOOOO",
"OOOOOOOOO XXX+++X... OOOOOOOOOOO",
"OOOOOOOO    . X   ... OOOOOOOOOO",
"OOOOOOOO&& X.XX &&... OOOOOOOOOO",
"OOOOOOOOX. .... X.... OOOOOOOOOO",
"OOOOOOOO         .... OOOOOOOOOO",
"OOOOOOOO#       #o... OOOOOOOOOO",
"OOOOOOOO#       #o... OOOOOOOOOO",
"OOOOOOOO#       #o... OOOOOOOOOO",
"OOOOOOOOo       #o... OOOOOOOOOO",
"OOOOOOOOo       #oXXX OOOOOOOOOO",
"OOOOOOOOoo     oo XXX OOOOOOOOOO",
"OOOOOOOOOO @$$$@@ XX. OOOOOOOOOO",
"OOOOOOOOOO $$$$$@ XX  OOOOOOOOOO",
"OOOOOOOOOO $%%$$$ XXX OOOOOOOOOO",
"OOOOOOOOOO $%%$$$ XXXX OOOOOOOOO",
"OOOOOOOOOO @%$$@@ X XX.  OOOOOOO",
"OOOOOOOOOO @@$@@@ ..     OOOOOOO",
"OOOOOOOOOO @@@@@@ ... OOOOOOOOOO",
"OOOOOOOOOO @@       . OOOOOOOOOO",
"OOOOOOOOOO            OOOOOOOOOO",
"OOOOOOOOOO            OOOOOOOOOO",
"OOOOOOOOOO            OOOOOOOOOO",
"OOOOOOOOOO    OOOO    OOOOOOOOOO",
"OOOOOOOOOOO   OOOO    OOOOOOOOOO",
"OOOOOOOOOOOO  OOOO    OOOOOOOOOO",
"OOOOOOOOOOOOOOOOOOO   OOOOOOOOOO",
"OOOOOOOOOOOOOOOOOOOO  OOOOOOOOOO"
};
