/* XPM */
static char *result[] = {
/* columns rows colors chars-per-pixel */
"32 32 5 1 ",
"  c #33323D",
". c #CB9050",
"X c #EED878",
"o c #2EB082",
"O c white",
/* pixels */
"oooooooooooooooooooooooooooooooo",
"oooooooooooooooooooooooooooooooo",
"oooooooooooooooooooooooooooooooo",
"oooooooooooooooooooooooooooooooo",
"oooooooooooooooooooooooooooooooo",
"oooooooooooooooooooooooooooooooo",
"ooooooooooooo      ooooooooooooo",
"ooooooooooooo      ooooooooooooo",
"oooooooooooo .. XOO oooooooooooo",
"oooooooooooo .. X   oooooooooooo",
"oooooooooooo .. X   oooooooooooo",
"oooooooooooo ..     oooooooooooo",
"oooooooooooo ..     oooooooooooo",
"oooooooooooo .. X   oooooooooooo",
"oooooooooooo .. X   oooooooooooo",
"oooooooooooo .. ... oooooooooooo",
"ooooooooooooo  .   ooooooooooooo",
"ooooooooooooo  .X  ooooooooooooo",
"ooooooooooooo  .X  ooooooooooooo",
"ooooooooooooo  .X  ooooooooooooo",
"oooooooooooo    .  ooooooooooooo",
"oooooooooooo XX..  ooooooooooooo",
"oooooooooooo XX..  ooooooooooooo",
"ooooooooooooo  ..  ooooooooooooo",
"oooooooooooo XX..  ooooooooooooo",
"oooooooooooo     ooooooooooooooo",
"oooooooooooo     ooooooooooooooo",
"oooooooooooooooooooooooooooooooo",
"oooooooooooooooooooooooooooooooo",
"oooooooooooooooooooooooooooooooo",
"oooooooooooooooooooooooooooooooo",
"oooooooooooooooooooooooooooooooo"
};
