/* XPM */
static char *result[] = {
/* columns rows colors chars-per-pixel */
"32 32 5 1 ",
"  c #33323D",
". c #CB9050",
"X c #EED878",
"o c #2EB082",
"O c white",
/* pixels */
"oooooooooooooooooooooooooooooooo",
"oooooooooooooooooooooooooooooooo",
"oooooooooooooooooooooooooooooooo",
"oooooooooooooooooooooooooooooooo",
"oooooooooooooooooooooooooooooooo",
"oooooooooooooooooooooooooooooooo",
"ooooooooooooo      ooooooooooooo",
"ooooooooooooo      ooooooooooooo",
"oooooooooooo XXX OO oooooooooooo",
"oooooooooooo   X OO oooooooooooo",
"oooooooooooo   X OO oooooooooooo",
"oooooooooooo     XX oooooooooooo",
"oooooooooooo     XX oooooooooooo",
"oooooooooooo   X XX oooooooooooo",
"oooooooooooo   X XX oooooooooooo",
"oooooooooooo ... .. oooooooooooo",
"ooooooooooooo   .  ooooooooooooo",
"ooooooooooooo  .X  ooooooooooooo",
"ooooooooooooo  .X  ooooooooooooo",
"ooooooooooooo  .X  ooooooooooooo",
"ooooooooooooo  .    oooooooooooo",
"ooooooooooooo  ..XX oooooooooooo",
"ooooooooooooo  ..XX oooooooooooo",
"ooooooooooooo  ..  ooooooooooooo",
"ooooooooooooo  ..XX oooooooooooo",
"ooooooooooooooo     oooooooooooo",
"ooooooooooooooo     oooooooooooo",
"oooooooooooooooooooooooooooooooo",
"oooooooooooooooooooooooooooooooo",
"oooooooooooooooooooooooooooooooo",
"oooooooooooooooooooooooooooooooo",
"oooooooooooooooooooooooooooooooo"
};
