/* XPM */
static char *result[] = {
/* columns rows colors chars-per-pixel */
"32 32 5 1 ",
"  c #33323D",
". c #CB9050",
"X c #EED878",
"o c #2EB082",
"O c white",
/* pixels */
"oooooooooooooooooooooooooooooooo",
"oooooooooooooooooooooooooooooooo",
"oooooooooooooooooooooooooooooooo",
"oooooooooooooooooooooooooooooooo",
"oooooooooooooooooooooooooooooooo",
"oooooooooooooooooooooooooooooooo",
"ooooooooooooo      ooooooooooooo",
"ooooooooooooo      ooooooooooooo",
"oooooooooooo XXXXOO oooooooooooo",
"oooooooooo  XXX  XXO  oooooooooo",
"oooooooooo  XXX  XXO  oooooooooo",
"oooooooooo  X  oo  O  oooooooooo",
"oooooooooo  X  oo  X  oooooooooo",
"oooooooooo  XXX  XXX  oooooooooo",
"oooooooooo  XXX  XXX  oooooooooo",
"oooooooooooo ..XX.. oooooooooooo",
"ooooooooooooo   X  ooooooooooooo",
"ooooooooooooo  .X  ooooooooooooo",
"ooooooooooooo  .X  ooooooooooooo",
"ooooooooooooo  .X  ooooooooooooo",
"ooooooooooooo  .X     oooooooooo",
"ooooooooooooo  .X..X  oooooooooo",
"ooooooooooooo  .X..X  oooooooooo",
"ooooooooooooo  .X.. oooooooooooo",
"ooooooooooooo  ....X  oooooooooo",
"ooooooooooooooo       oooooooooo",
"ooooooooooooooo       oooooooooo",
"oooooooooooooooooooooooooooooooo",
"oooooooooooooooooooooooooooooooo",
"oooooooooooooooooooooooooooooooo",
"oooooooooooooooooooooooooooooooo",
"oooooooooooooooooooooooooooooooo"
};
