/* XPM */
static char *result[] = {
/* columns rows colors chars-per-pixel */
"32 32 5 1 ",
"  c #33323D",
". c #CB9050",
"X c #EED878",
"o c #2EB082",
"O c white",
/* pixels */
"oooooooooooooooooooooooooooooooo",
"oooooooooooooooooooooooooooooooo",
"oooooooooooooooooooooooooooooooo",
"oooooooooooooooooooooooooooooooo",
"oooooooooooooooooooooooooooooooo",
"oooooooooooooooooooooooooooooooo",
"ooooooooooooooo  ooooooooooooooo",
"ooooooooooooooo  ooooooooooooooo",
"ooooooooooooo  .O  ooooooooooooo",
"ooooooooooooo  .X  ooooooooooooo",
"ooooooooooooo  .X  ooooooooooooo",
"ooooooooooooo  .X  ooooooooooooo",
"ooooooooooooo  .X  ooooooooooooo",
"ooooooooooooo  .X  ooooooooooooo",
"ooooooooooooo  .X  ooooooooooooo",
"ooooooooooooo  ..  ooooooooooooo",
"ooooooooooooo      ooooooooooooo",
"ooooooooooooo  .X  ooooooooooooo",
"ooooooooooooo  .X  ooooooooooooo",
"ooooooooooooo  .X  ooooooooooooo",
"ooooooooooooo  .X  ooooooooooooo",
"ooooooooooooo  .X  ooooooooooooo",
"ooooooooooooo  .X  ooooooooooooo",
"ooooooooooooo  .X  ooooooooooooo",
"ooooooooooooo  ..  ooooooooooooo",
"ooooooooooooo    ooooooooooooooo",
"ooooooooooooo    ooooooooooooooo",
"oooooooooooooooooooooooooooooooo",
"oooooooooooooooooooooooooooooooo",
"oooooooooooooooooooooooooooooooo",
"oooooooooooooooooooooooooooooooo",
"oooooooooooooooooooooooooooooooo"
};
