/* XPM */
static char *result[] = {
/* columns rows colors chars-per-pixel */
"18 18 4 1 ",
"  c #345551",
". c #36E377",
"X c #2EB082",
"o c None",
/* pixels */
"XXXXXXXXXXXXXXX  o",
"XXXXXXXXXXXXXXX  o",
"XXXXXXXXXXXXXXX  o",
"XXXXXXXXXXXXXXX  o",
"XXXXXXXXXXXXXXX  o",
"XXXXXXXXXXXXXXX  o",
"XXXXXXXXXXXXXXX  o",
"XXXXXXXXXXXXXXX  o",
"XXXXXXXXXXXXXXX  o",
"XXXXXXXXXXXXX.X  o",
"XXXXXXXXXXXXXXX   ",
"XXXXXXXXXXXXXX..  ",
"XX.XXXXXXXXXXX..  ",
"XXXXXXXXXXXX.XX   ",
"XX..XXXXXXXXXXX  o",
"  ..             o",
"                oo",
"o    ooooooooooooo"
};
