/* XPM */
static char *result[] = {
/* columns rows colors chars-per-pixel */
"18 18 4 1 ",
"  c #345551",
". c #36E377",
"X c #2EB082",
"o c None",
/* pixels */
"o  XXXXXXXXXXXXXXX",
"   XXXXXXXXXXXXXXX",
"  ..XXXXXXXXXXXXXX",
"  ..XXXX.XXXXXXXXX",
"   XX.XXXXXXXXXXXX",
"o  XXXXXXXXXXXXXXX",
"o  XXXX.XXXXXXXXXX",
"o  XXXXXXXXXXXXXXX",
"o  XXXXXXXXXXXXXXX",
"o  XXXXXXXXXXXXXXX",
"o  XXXXXXXXXXXXXXX",
"o  XXXXXXXXXXXXXXX",
"o  XXXXXXXXXXXXXXX",
"o  XXXXXXXXXXXXXXX",
"o  XXXXXXXXXXXXXXX",
"o  XXXXXXXXXXXXXXX",
"o  X.XXXXXXXXXXXXX",
"o  XXXXXXXXXXXXXXX"
};
