/* XPM */
static char *d85dc573d2a0405bf3acad13d8fe9022IzmRd6rSVkmJ7XCP[] = {
/* columns rows colors chars-per-pixel */
"18 18 4 1 ",
"  c None",
". c #345551",
"X c #36E377",
"o c #2EB082",
/* pixels */
"             .... ",
"..................",
"..............oo..",
"XXXXXXXXXXXXXXooXX",
"XXXXXXXXXXXXXXXXXX",
"oooooooooooooooooo",
"oooooooooooooooXoo",
"ooooooooooXooooooo",
"ooooooooooooXooooo",
"oooooooooooooooooo",
"oooooooooooooooooo",
"oooooooooooooooooo",
"oooooooooooooooooo",
"oooooooooooooooooo",
"oooooooooooooooooo",
"oooooooooooooooooo",
"oooooooooooooooooo",
"oooooooooooooooooo"
};
