/* XPM */
static char *d10ec590d417437c82aacb80cef17486lBJVky8CH4SYmfin[] = {
/* columns rows colors chars-per-pixel */
"18 18 7 1 ",
"  c None",
". c #DCE1E7",
"X c #959AB1",
"o c #DD442C",
"O c #434A5F",
"+ c #7E3125",
"@ c #FC683B",
/* pixels */
" OOOO             ",
"OOOOOO            ",
"OO..OO+++   +++++ ",
"OO..OO++++++++++++",
"OOXX@@@@+++++o@@++",
"OOOO@@@@oo@@@o@@++",
"OOXX@@@@o@o@@o@@++",
"OOXX@@@@oo@@@o@@++",
"OOXX@@@@o@o@@o@@++",
"OOXX@@@@oo@@@o@@++",
"OOOO@@@@o@o@@o@@++",
"OOXX@@@@oo@@@o@@++",
"OOXXOO++o@o@@+++++",
"OOXXOO+++++++++++ ",
"OOXXOO +++++++    ",
"OOXXOO            ",
"OOXXOO            ",
"OOXXOO            "
};
