/* XPM */
static char *result[] = {
/* columns rows colors chars-per-pixel */
"18 18 4 1 ",
"  c #345551",
". c #36E377",
"X c #2EB082",
"o c None",
/* pixels */
"oooooooooo    oooo",
"                oo",
"           XX    o",
"...........XX.X  o",
"...............  o",
"XXXXXXXXXXXXX..  o",
"XXXXXXXXXX.XXXX  o",
"XXXXXXXXXXXXXXX  o",
"XXXXXXXXXXXXXXX  o",
"XXXXXXXXXXXXX.X  o",
"XXXXXXXXXXXXXXX  o",
"XXXXXXXXXXXXXXX  o",
"XXXXXXXXXXXXXXX  o",
"XXXXXXXXXXXXXXX   ",
"XXXXXXXXXXXXXX..  ",
"XXXXXXXXXXXXXX..  ",
"XXXXXXXXXXXXXXX   ",
"XXXXXXXXXXXXXXX  o"
};
