/* XPM */
static char *_21c6f86f34e46d8f970d1fbd397f591OHtc1G94Qn2bi9Vb[] = {
/* columns rows colors chars-per-pixel */
"18 18 4 1 ",
"  c None",
". c #2EB082",
"X c #36E377",
"o c #345551",
/* pixels */
"           oooo   ",
"          oooooo  ",
"         oooXXooo ",
"   oooo oooXXXXoo ",
"  ooooooooXXXXXoo ",
" oooXXooooXXXoooo ",
" ooXXXXooo..oooo  ",
" ooXXXXXoo..oo    ",
" ooooXXXoo..oo    ",
"  oooo..oo.XXo    ",
"    oo..oo.XXo    ",
"    oo..oo..oo    ",
"    oo..oo..oo    ",
"    oo..oo..oo    ",
"    oXX.oo..oo    ",
"    oXX.oo..oo    ",
"    oo..oo..oo    ",
"    oo..oo..oo    "
};
