/* XPM */
static char *result[] = {
/* columns rows colors chars-per-pixel */
"32 32 9 1 ",
"  c #323443",
". c #BD3B53",
"X c #A45B51",
"o c #E86363",
"O c #C58D71",
"+ c #2EB082",
"@ c #E39B89",
"# c #FDCAAB",
"$ c #FFE3C6",
/* pixels */
"++++++++++++++++++++++++++++++++",
"++++++++++++++++++++++++++++++++",
"++++++++++++++++++++++++++++++++",
"++++++++++++++++++++++++++++++++",
"++++++++++           +++++++++++",
"+++++++++ ### #$$$$$$# +++++++++",
"++++++++ @### ######## +++++++++",
"++++++++ @### ######## +++++++++",
"++++++++ @### ######## +++++++++",
"++++++++ @@## ##@@#### +++++++++",
"++++++++ @@@# #@@@@### +++++++++",
"++++++++  @@   ####### +++++++++",
"+++++++ #@@@   @###    +++++++++",
"+++++++ @@@@   @@@@@@@ +++++++++",
"++++++++               +++++++++",
"+++++++ XXOOOOO    OOOO ++++++++",
"+++++++ XOOOOOO     OOOX +++++++",
"++++++  XOOOOOO     OOOX +++++++",
"+++++ ..XXOOOOOOOOOOOOX ++++++++",
"++++ oo. XXXXXXXXXXXXXX ++++++++",
"++++ oo .              +++++++++",
"++++ oo .oooo..   .. o +++++++++",
"++++    ..oooooooooo . +++++++++",
"++++ ##                +++++++++",
"+++++                @ +++++++++",
"+++++++               ++++++++++",
"+++++                +++++++++++",
"+++++ OOOOOOO         ++++++++++",
"+++++ XOOOOOX         ++++++++++",
"++++++        +++    +++++++++++",
"++++++++ X ++++++   ++++++++++++",
"++++++++  ++++++++++++++++++++++"
};
