/* XPM */
static char *result[] = {
/* columns rows colors chars-per-pixel */
"32 32 10 1 ",
"  c #323443",
". c #BD3B53",
"X c #A45B51",
"o c #E86363",
"O c #C58D71",
"+ c #2EB082",
"@ c #E39B89",
"# c #FDCAAB",
"$ c #FFE3C6",
"% c white",
/* pixels */
"++++++++++++++++++++++++++++++++",
"++++++++++++++++++++++++++++++++",
"+++++++++++          +++++++++++",
"++++++++++ @@ ####### ++++++++++",
"+++++++++ @##@###$$$# ++++++++++",
"+++++++++ ###@####$$$# +++++++++",
"+++++++++ ###@######## +++++++++",
"+++++++++ ###@######## +++++++++",
"+++++++++ ###@######## +++++++++",
"+++++++++ @@#@##@@@@## +++++++++",
"++++++++  @@    ###### +++++++++",
"++++++++  @@    @@@@ @ +++++++++",
"++++++++               +++++++++",
"++++++++ XOOOOOOOOOOOO +++++++++",
"++++++++ XOOOOO  %%OOOX ++++++++",
"++++++++ XOOOOO    OOOX  +++++++",
"++++++   OOOOOO    OOOX  +++++++",
"+++++ .. XXOOOOOOOOOOOX ++++++++",
"++++  oo. XXXXXXXXXXXX +++++++++",
"++++  ooo.             +++++++++",
"++++  o. ooooo.    . o +++++++++",
"++++     oooooooooo. o +++++++++",
"++++  ## .             +++++++++",
"++++++               @ +++++++++",
"++++                  ++++++++++",
"++++  OOOOOOO        +++++++++++",
"++++  XOOOOOX        +++++++++++",
"++++++               +++++++++++",
"++++++++ X ++++++    +++++++++++",
"++++++++ O ++++++    +++++++++++",
"++++++++  ++++++++   +++++++++++",
"++++++++++++++++++  ++++++++++++"
};
