/* XPM */
static char *result[] = {
/* columns rows colors chars-per-pixel */
"32 32 12 1 ",
"  c #323443",
". c #23787E",
"X c #36A57C",
"o c #BC6D9F",
"O c #2EB082",
"+ c #5FD194",
"@ c #E39B89",
"# c #E79AB4",
"$ c #FDCAAB",
"% c #FAD2D7",
"& c #FFE3C6",
"* c white",
/* pixels */
"OOOOOOOOOOOOOOOOOOOOOOOOOOOOOOOO",
"OOOOOOOOOOOOOOOOOOOOOOOOOOOOOOOO",
"OOOOOOOOOOOOOOOOOOOOOOOOOOOOOOOO",
"OOOOOOOOOOOOOOOOOOOOOOOOOOOOOOOO",
"OOOOOOOOOOOO       OOOOOOOOOOOOO",
"OOOOOOOOOO .X XXXXX. OOOOOOOOOOO",
"OOOOOOOOOO XXXXXXXXX OOOOOOOOOOO",
"OOOOOOOOOO X+++XXXXX. OOOOOOOOOO",
"OOOOOOOOOO XXXXXXXX.. OOOOOOOOOO",
"OOOOOOOOOO X . XXXXX. OOOOOOOOOO",
"OOOOOOOOO** X.XX **.. OOOOOOOOOO",
"OOOOOOOOO   XXXX   .. OOOOOOOOOO",
"OOOOOOOOO          .. OOOOOOOOOO",
"OOOOOOOOO #%%#%%## .. OOOOOOOOOO",
"OOOOOOOOO# ***** #o.. OOOOOOOOOO",
"OOOOOOOOOoooooooo#o.. OOOOOOOOOO",
"OOOOOOOOOO @@@@@   .. OOOOOOOOOO",
"OOOOOOOOOO @$$$@@ XX. OOOOOOOOOO",
"OOOOOOOOOO $$$$@@ XX. OOOOOOOOOO",
"OOOOOOOOOO &&$$$@ XX  OOOOOOOOOO",
"OOOOOOOOOO &&&&$@ XXX OOOOOOOOOO",
"OOOOOOOOOO $&$$$@ XXX.  OOOOOOOO",
"OOOOOOOOOO $$$$$@ X X.. OOOOOOOO",
"OOOOOOOOOO $$$$$@ X.   OOOOOOOOO",
"OOOOOOOOOO @@@@@  ... OOOOOOOOOO",
"OOOOOOOOOO @@@    ... OOOOOOOOOO",
"OOOOOOOOOO @        . OOOOOOOOOO",
"OOOOOOOOOO            OOOOOOOOOO",
"OOOOOOOOOO            OOOOOOOOOO",
"OOOOOOOOOO    OOOO    OOOOOOOOOO",
"OOOOOOOOOO    OOOO    OOOOOOOOOO",
"OOOOOOOOOOO   OOOOO   OOOOOOOOOO"
};
