/* XPM */
static char *result[] = {
/* columns rows colors chars-per-pixel */
"32 32 11 1 ",
"  c #323443",
". c #23787E",
"X c #36A57C",
"o c #BC6D9F",
"O c #2EB082",
"+ c #5FD194",
"@ c #E39B89",
"# c #E79AB4",
"$ c #FDCAAB",
"% c #FFE3C6",
"& c white",
/* pixels */
"OOOOOOOOOOOOOOOOOOOOOOOOOOOOOOOO",
"OOOOOOOOOOO       OOOOOOOOOOOOOO",
"OOOOOOOOO .X XXXXX. OOOOOOOOOOOO",
"OOOOOOOOO XXXXXXXXX OOOOOOOOOOOO",
"OOOOOOOOO X+++XXXXX. OOOOOOOOOOO",
"OOOOOOOOO X+++XXXX.. OOOOOOOOOOO",
"OOOOOOOO  X  XX  ... OOOOOOOOOOO",
"OOOOOOO &&   X && .. OOOOOOOOOOO",
"OOOOOOO X. ... .. .. OOOOOOOOOOO",
"OOOOOOOO         .... OOOOOOOOOO",
"OOOOOOO #      ## ... OOOOOOOOOO",
"OOOOOOO         # ... OOOOOOOOOO",
"OOOOOOO         # ... OOOOOOOOOO",
"OOOOOOO         # ... OOOOOOOOOO",
"OOOOOOO         o XX. OOOOOOOOOO",
"OOOOOOO oo     oo XX. OOOOOOOOOO",
"OOOOOOOOOO $$$$@@ ... OOOOOOOOOO",
"OOOOOOOOOO $$$$$@ XX  OOOOOOOOOO",
"OOOOOOOOOO %%$$$@ XXX OOOOOOOOOO",
"OOOOOOOOOO %%%%$@ XXX. OOOOOOOOO",
"OOOOOOOOOO $%$$$@ X X.. OOOOOOOO",
"OOOOOOOOOO @$$@@@ X.    OOOOOOOO",
"OOOOOOOOOO @@@@@  ... OOOOOOOOOO",
"OOOOOOOOOO @@@    ... OOOOOOOOOO",
"OOOOOOOOOO            OOOOOOOOOO",
"OOOOOOOOOO            OOOOOOOOOO",
"OOOOOOOOO             OOOOOOOOOO",
"OOOOOOOOO    OOOOO    OOOOOOOOOO",
"OOOOOOOOOO   OOOOO    OOOOOOOOOO",
"OOOOOOOOOOO  OOOOO    OOOOOOOOOO",
"OOOOOOOOOOOOOOOOOOO   OOOOOOOOOO",
"OOOOOOOOOOOOOOOOOOOO  OOOOOOOOOO"
};
