/* XPM */
static char *result[] = {
/* columns rows colors chars-per-pixel */
"32 32 11 1 ",
"  c #323443",
". c #23787E",
"X c #36A57C",
"o c #BC6D9F",
"O c #2EB082",
"+ c #5FD194",
"@ c #E39B89",
"# c #E79AB4",
"$ c #FDCAAB",
"% c #FFE3C6",
"& c white",
/* pixels */
"OOOOOOOOOOOOOOOOOOOOOOOOOOOOOOOO",
"OOOOOOOOOOOOOOOOOOOOOOOOOOOOOOOO",
"OOOOOOOOOO        OOOOOOOOOOOOOO",
"OOOOOOOOO X .XXXX. OOOOOOOOOOOOO",
"OOOOOOOO XXXXXXXXX. OOOOOOOOOOOO",
"OOOOOOOO XXX++XXXXX OOOOOOOOOOOO",
"OOOOOOOO XXX+++X... OOOOOOOOOOOO",
"OOOOOOO  X  XX  .... OOOOOOOOOOO",
"OOOOOO  &   X  & ... OOOOOOOOOOO",
"OOOOOO X. ... .. ... OOOOOOOOOOO",
"OOOOOO          .... OOOOOOOOOOO",
"OOOOOO#        #o... OOOOOOOOOOO",
"OOOOOO#        #o... OOOOOOOOOOO",
"OOOOOO#&& &&&&&#o... OOOOOOOOOOO",
"OOOOOOooooooooooo... OOOOOOOOOOO",
"OOOOOO           XX. OOOOOOOOOOO",
"OOOOOOOOO @$$$@@ XX. OOOOOOOOOOO",
"OOOOOOOOO @$$$$@ XX  OOOOOOOOOOO",
"OOOOOOOOO $%%$$$ XXX OOOOOOOOOOO",
"OOOOOOOOO $%%$$$ XXXX OOOOOOOOOO",
"OOOOOOOOO $%$$$$ X XX.  OOOOOOOO",
"OOOOOOOOO $$$$$$ XX     OOOOOOOO",
"OOOOOOOOO @$$$@@ XX. OOOOOOOOOOO",
"OOOOOOOOO @        . OOOOOOOOOOO",
"OOOOOOOOO @        . OOOOOOOOOOO",
"OOOOOOOOO            OOOOOOOOOOO",
"OOOOOOOOO            OOOOOOOOOOO",
"OOOOOOOOO            OOOOOOOOOOO",
"OOOOOOOOO    OOOOO    OOOOOOOOOO",
"OOOOOOOOOO   OOOOOO   OOOOOOOOOO",
"OOOOOOOOOOO  OOOOOOOOOOOOOOOOOOO",
"OOOOOOOOOOOOOOOOOOOOOOOOOOOOOOOO"
};
