/* XPM */
static char *result[] = {
/* columns rows colors chars-per-pixel */
"32 32 11 1 ",
"  c #323443",
". c #23787E",
"X c #36A57C",
"o c #BC6D9F",
"O c #2EB082",
"+ c #5FD194",
"@ c #E39B89",
"# c #E79AB4",
"$ c #FDCAAB",
"% c #FFE3C6",
"& c white",
/* pixels */
"OOOOOOOOOOOOOOOOOOOOOOOOOOOOOOOO",
"OOOOOOOOOOOOOOOOOOOOOOOOOOOOOOOO",
"OOOOOOOOOOOOOOOOOOOOOOOOOOOOOOOO",
"OOOOOOOOOOO        OOOOOOOOOOOOO",
"OOOOOOOOOO X .XXXX. OOOOOOOOOOOO",
"OOOOOOOOO XXXXXXXXX. OOOOOOOOOOO",
"OOOOOOOOO XXX++XXXXX OOOOOOOOOOO",
"OOOOOOOOO XXX+++X... OOOOOOOOOOO",
"OOOOOOOOO  X  XX  ... OOOOOOOOOO",
"OOOOOOOO  &   X  & .. OOOOOOOOOO",
"OOOOOOOO X. ... .. .. OOOOOOOOOO",
"OOOOOOOO          ... OOOOOOOOOO",
"OOOOOOOO#       ## .. OOOOOOOOOO",
"OOOOOOOOo        # .. OOOOOOOOOO",
"OOOOOOOOo        o .. OOOOOOOOOO",
"OOOOOOOOoo      oo .. OOOOOOOOOO",
"OOOOOOOOOO @$$$@@ XXX OOOOOOOOOO",
"OOOOOOOOOO $$$$$@ XX. OOOOOOOOOO",
"OOOOOOOOOO $$$$$$ XX  OOOOOOOOOO",
"OOOOOOOOOO $%%$$$ XXX OOOOOOOOOO",
"OOOOOOOOOO $%%$$$ XXX.   OOOOOOO",
"OOOOOOOOOO $%$$$$ X ...  OOOOOOO",
"OOOOOOOOOO $$$$$$ XX   OOOOOOOOO",
"OOOOOOOOOO @$$$@@ XX. OOOOOOOOOO",
"OOOOOOOOOO @@       . OOOOOOOOOO",
"OOOOOOOOOO @        . OOOOOOOOOO",
"OOOOOOOOOO            OOOOOOOOOO",
"OOOOOOOOOO            OOOOOOOOOO",
"OOOOOOOOOO            OOOOOOOOOO",
"OOOOOOOOOO    OOOO    OOOOOOOOOO",
"OOOOOOOOOO    OOOOO   OOOOOOOOOO",
"OOOOOOOOOOO   OOOOOOOOOOOOOOOOOO"
};
