/* XPM */
static char *result[] = {
/* columns rows colors chars-per-pixel */
"32 32 12 1 ",
"  c #323443",
". c #23787E",
"X c #36A57C",
"o c #BC6D9F",
"O c #2EB082",
"+ c #5FD194",
"@ c #E39B89",
"# c #E79AB4",
"$ c #FDCAAB",
"% c #FAD2D7",
"& c #FFE3C6",
"* c white",
/* pixels */
"OOOOOOOOOOOOOOOOOOOOOOOOOOOOOOOO",
"OOOOOOOOOOOOOOOOOOOOOOOOOOOOOOOO",
"OOOOOOOOOOOOOOOOOOOOOOOOOOOOOOOO",
"OOOOOOOOOOOOOOOOOOOOOOOOOOOOOOOO",
"OOOOOOOOOOOOOOOOOOOOOOOOOOOOOOOO",
"OOOOOOOOOOO        OOOOOOOOOOOOO",
"OOOOOOOOO .X .XXXXX. OOOOOOOOOOO",
"OOOOOOOOO XXXXXXXXXX OOOOOOOOOOO",
"OOOOOOOOO XXX+XXXXXX. OOOOOOOOOO",
"OOOOOOOOO XXXXXXXXXX. OOOOOOOOOO",
"OOOOOOOOO XX  XXXXXX. OOOOOOOOOO",
"OOOOOOOO** X  XX **.. OOOOOOOOOO",
"OOOOOOOO   XXXXX   .. OOOOOOOOOO",
"OOOOOOOO           .. OOOOOOOOOO",
"OOOOOOOO #%%###%##o.. OOOOOOOOOO",
"OOOOOOOO# ***** * # . OOOOOOOOOO",
"OOOOOOOOooooooooooo . OOOOOOOOOO",
"OOOOOOOO            X OOOOOOOOOO",
"OOOOOOOOO @$$$$@@ XXX OOOOOOOOOO",
"OOOOOOOOO $$$$$$@ XX. OOOOOOOOOO",
"OOOOOOOOO $$$$$$$ XX  OOOOOOOOOO",
"OOOOOOOOO $&&$$$$ XXX OOOOOOOOOO",
"OOOOOOOOO $&&&&$$ XXXX   OOOOOOO",
"OOOOOOOOO $$&$$$$ X XX.  OOOOOOO",
"OOOOOOOOO @@$$@@@ ..   OOOOOOOOO",
"OOOOOOOOO @@@@@@@ ... OOOOOOOOOO",
"OOOOOOOOO @@        . OOOOOOOOOO",
"OOOOOOOOO @         . OOOOOOOOOO",
"OOOOOOOOO             OOOOOOOOOO",
"OOOOOOOOO             OOOOOOOOOO",
"OOOOOOOOO     OOOO    OOOOOOOOOO",
"OOOOOOOOOO    OOOOO   OOOOOOOOOO"
};
