/* XPM */
static char *result[] = {
/* columns rows colors chars-per-pixel */
"18 18 4 1 ",
"  c #345551",
". c #36E377",
"X c #2EB082",
"o c None",
/* pixels */
"o  XXXXXXXXXXXXXXX",
"   XXXXXXXXXXXXXXX",
"  ..XXXX.XXXXXXXXX",
"  ..XXXXXXXXXXXXXX",
"   XXXXXXXXXXXXXXX",
"o  XXX.XXXXXXXXXXX",
"o  XXXXXXXXXXXXXXX",
"o  XXXXXXXXXXXXXXX",
"o  XXXXXXXXXXXXXXX",
"o  XXXXXXXXXXXXXXX",
"o  XXXXXXXXXXXXXXX",
"o  XX.XXXXXXXXXXXX",
"o  XXXXXXXXXXXXXXX",
"o  XXXXX.XXXXXXXXX",
"o  XX..XXXXXXXXXXX",
"o    ..           ",
"oo                ",
"oooo    oooooooooo"
};
