/* XPM */
static char *result[] = {
/* columns rows colors chars-per-pixel */
"24 24 9 1 ",
"  c #6F3E43",
". c #434A5F",
"X c #9F5A52",
"o c #CB815E",
"O c #F4AC66",
"+ c #959AB1",
"@ c #DCE1E7",
"# c white",
"$ c None",
/* pixels */
"$$$$$$$$$$$$$$$$$$$$$$$$",
"$$$$$$$$$$$$$$$$$$$$$$$$",
"$$$$$$$$$$$$$$$$$$$$$$$$",
"$$$$$$$$$$$$$$$$$$$$$$$$",
"$$$$$$$$$$$$$$$$$$$$$$$$",
"$$$$$$$$$$$$$$$$$$$$$$$$",
"$$$$$$$$$$$$$$$$$$$$$$$$",
"$$$$$$.          .$$$$$$",
"$$$$$..          ..$$$$$",
"$$$$...+XOOOOOOX+...$$$$",
"$$$...@+XOOOOOOX+@...$$$",
"$$$..++@XooooooX@++..$$$",
"$$$..+++Xo#o#ooX+++..$$$",
"$$$..@@ Xo#o#ooX @@..$$$",
"$$$..@@  oooooo  @@..$$$",
"$$$...+          +...$$$",
"$$$$..++        ++..$$$$",
"$$$$...+....$...+...$$$$",
"$$$$$.....$.$......$$$$$",
"$$$$$$....$$$$....$$$$$$",
"$$$$$$$$$$$$$$$$$$$$$$$$",
"$$$$$$$$$$$$$$$$$$$$$$$$",
"$$$$$$$$$$$$$$$$$$$$$$$$",
"$$$$$$$$$$$$$$$$$$$$$$$$"
};
