/* XPM */
static char *result[] = {
/* columns rows colors chars-per-pixel */
"18 18 6 1 ",
"  c #6F3E43",
". c #F4B41B",
"X c #CB815E",
"o c #FEE481",
"O c white",
"+ c None",
/* pixels */
"+                +",
"                  ",
"  oooooooooooooo  ",
"  oooooooooooooo  ",
"  ..............  ",
"  .XX...XX...XX.  ",
"  .XX..XOOX..XX.  ",
"  .....OOOO.....  ",
"  .....OOOO.....  ",
"  ......OO......  ",
"  ......OO......  ",
"  ......XX......  ",
"  ......OO......  ",
"  .XX...OO...XX.  ",
"  .XX........XX.  ",
"  ..............  ",
"                  ",
"+                +"
};
