/* XPM */
static char *_f3ab84301c24b0eab1044027c9effc0MOg4UcbF5fktZb0F[] = {
/* columns rows colors chars-per-pixel */
"24 24 8 1 ",
"  c None",
". c #34995E",
"X c #434A5F",
"o c #86F6BB",
"O c white",
"+ c #5AD28C",
"@ c #346547",
"# c #BEDEF1",
/* pixels */
"      ############      ",
"    ###OOOOOOOOOO###    ",
"   ##OO##########OO##   ",
"   #O##############O#   ",
"  ##O##############O##  ",
"  #O###@@@@@@@@@@###O#  ",
"  #O##@@@@@@@@@@@@##O#  ",
"  #O#@@@oooooooo@@@#O#  ",
"  #O#@@oooooooooo@@#O#  ",
"  #O#@@o++++++++o@@#O#  ",
"  #O#@@++++++++++@@#O#  ",
"  #O#@@++++++++++@@#O#  ",
"  #O#@@+XX++XX+++@@#O#  ",
"  #O##@+XX++XX+++@##O#  ",
"  ##O#@++++++++++@#O##  ",
"   #O###++XX++++###O#   ",
"   ##OO##########OO##   ",
"    ###OOOOOOOOOO###    ",
"     @############@     ",
"     @@.++++++++.@@     ",
"     @++.@@@@@@.++@     ",
"     @++@@@@@@@@++@     ",
"     @@@@      @@@@     ",
"                        "
};
