/* XPM */
static char *result[] = {
/* columns rows colors chars-per-pixel */
"32 32 11 1 ",
"  c #33323D",
". c #8A4452",
"X c #A05858",
"o c #B77F6B",
"O c #CB9050",
"+ c #EED878",
"@ c #68538A",
"# c #7B7BAB",
"$ c #2EB082",
"% c #94A2BD",
"& c white",
/* pixels */
"$$$$$$$$$$$$$$$$$$$$$$$$$$$$$$$$",
"$$$$$$$$$$$$$$$$$$$$$$$$$$$$$$$$",
"$$$$$$$$$$$$$$$$$$$$$$$$$$$$$$$$",
"$$$$$$$$$$$$$$$$$$$$$$$$$$$$$$$$",
"$$$$$$$$$$$$$$$$$$$$$$$$$$$$$$$$",
"$$$$$$$$$$$$$$$$$$$$$$$$$$$$$$$$",
"$$$$$$$$$$$$$$$$$$$$$$$$$$$$$$$$",
"$$$$$$$$$$$$$$$$$$$$$$$$$$$$$$$$",
"$$                            $$",
"$ %%% oooooooooooooooooooX %%% $",
"$ ### ..XXXoXoooX.XXoooXX  ### $",
"$ ### oooooooooooooooooooX ### $",
"$ ### oooooooooooooooooooX ### $",
"$ ### .XXoooX.XoooXoXXX..  ### $",
"$ ### oooooooooooooooooooX ### $",
"$ ###                      ### $",
"$ ####%#%%###@ %% ###%#%%%#### $",
"$ @###%#%%###@ ## ###%#%%%###@ $",
"$  @@@#@##@@@  ##  @@#@###@@@  $",
"$            O @@ &            $",
"$ @@@@@@@@@@ O    + @@@@@@@@@@ $",
"$ ########## O @@ O ########## $",
"$ ##@                      @## $",
"$ ## XXXXXX +&&&&&&& XXXXXX ## $",
"$ ## oooooX O++++++& oooooX ## $",
"$ ## oooXX. O+    +& .XoooX ## $",
"$ ## .XoooX O+O  O+& oooX.  ## $",
"$ ## oooooX O++++++& oooooX ## $",
"$ ##@       OOOOOOO+       @## $",
"$ @@@@@@@@@@        @@@@@@@@@@ $",
"$ @@@@@@@@@@@@@@@@@@@@@@@@@@@@ $",
"$$                            $$"
};
