/* XPM */
static char *result[] = {
/* columns rows colors chars-per-pixel */
"32 32 9 1 ",
"  c #33323D",
". c #8A4452",
"X c #A05858",
"o c #B77F6B",
"O c #68538A",
"+ c #7B7BAB",
"@ c #2EB082",
"# c #94A2BD",
"$ c white",
/* pixels */
"@@@@@@@@@@@@@@@@@@@@@@@@@@@@@@@@",
"@@@@@@@@@@@@@@@@@@@@@@@@@@@@@@@@",
"@@@@@@@@@@@@@@@@@@@@@@@@@@@@@@@@",
"@@@@@@@@@@@@@@@@@@@@@@@@@@@@@@@@",
"@@@@@@@@@@@@@@@@@@@@@@@@@@@@@@@@",
"@@@@@@@@@@@@@@@@@@@@@@@@@@@@@@@@",
"@@@@@@@@@@@@@@@@@@@@@@@@@@@@@@@@",
"@@@@@@@@@@@@@@@@@@@@@@@@@@@@@@@@",
"@@                            @@",
"@ ### oooooooooooooooooooX ### @",
"@ +++ ..XXXoXoooX.XXoooXX  +++ @",
"@ +++ oooooooooooooooooooX +++ @",
"@ +++ oooooooooooooooooooX +++ @",
"@ +++ .XXoooX.XoooXoXXX..  +++ @",
"@ +++ oooooooooooooooooooX +++ @",
"@ +++                      +++ @",
"@ ++++#+##+++O ## +++#+###++++ @",
"@ O+++#+##+++O ++ +++#+###+++O @",
"@  OOO+O++OOO$ ++ $OO+O+++OOO  @",
"@           $$ OO $$           @",
"@ OOOOOOOOOO$$$  $$$OOOOOOOOOO @",
"@ ++++++++++$$$OO$$$++++++++++ @",
"@ ++O       $$$$$$$$       O++ @",
"@ ++ XXXXXX$$$$$$$$$$XXXXXX ++ @",
"@ ++ oooooX$$$$$$$$$$oooooX ++ @",
"@ ++ oooXX.$$$$$$$$$$.XoooX ++ @",
"@ ++ .XoooX$$$$$$$$$$oooX.  ++ @",
"@ ++ oooooX$$$$$$$$$$oooooX ++ @",
"@ ++O      $$$$$$$$$$      O++ @",
"@ OOOOOOOOOO$$$$$$$$OOOOOOOOOO @",
"@ OOOOOOOOOOOOOOOOOOOOOOOOOOOO @",
"@@                            @@"
};
