/* XPM */
static char *result[] = {
/* columns rows colors chars-per-pixel */
"32 32 4 1 ",
"  c #345551",
". c #36E377",
"X c #2EB082",
"o c None",
/* pixels */
"oo   XXXXXXXXXXXXXXXXXXXXXXXXXXX",
"oo   XXXXXXXXXXXXXXXXXXXXXXXXXXX",
"     XXXXXXXXXXXXXXXXXXXXXXXXXXX",
"     XXXXXXXXXXXXXXXXXXXXXXXXXXX",
"    ...XXXXXXX..XXXXXXXXXXXXXXXX",
"    ...XXXXXXXXXXXXXXXXXXXXXXXXX",
"    ...XXXXXXXXXXXXXXXXXXXXXXXXX",
"     XXXXXXXXXXXXXXXXXXXXXXXXXXX",
"     XXXXXXXXXXXXXXXXXXXXXXXXXXX",
"oo   XXXXXX.XXXXXXXXXXXXXXXXXXXX",
"oo   XXXXXX.XXXXXXXXXXXXXXXXXXXX",
"oo   XXXXXXXXXXXXXXXXXXXXXXXXXXX",
"oo   XXXXXXXXXXXXXXXXXXXXXXXXXXX",
"oo   XXXXXXXXXXXXXXXXXXXXXXXXXXX",
"oo   XXXXXXXXXXXXXXXXXXXXXXXXXXX",
"oo   XXXXXXXXXXXXXXXXXXXXXXXXXXX",
"oo   XXXXXXXXXXXXXXXXXXXXXXXXXXX",
"oo   XXXXXXXXXXXXXXXXXXXXXXXXXXX",
"oo   XXXXXXXXXXXXXXXXXXXXXXXXXXX",
"oo   XXXXXXXXXXXXXXXXXXXXXXXXXXX",
"oo   XXXX..XXXXXXXXXXXXXXXXXXXXX",
"oo   XXXXXXXXXXXXXXXXXXXXXXXXXXX",
"oo   XXXXXXXXXXXXXXXXXXXXXXXXXXX",
"oo   XXXXXXXXX..XXXXXXXXXXXXXXXX",
"oo   XXXXXXXXX..XXXXXXXXXXXXXXXX",
"oo   XXXX...XXXXXXXXXXXXXXXXXXXX",
"oo   XXXX...XXXXXXXXXXXXXXXXXXXX",
"oo       ...                    ",
"oooo                            ",
"oooo                            ",
"ooooooo       oooooooooooooooooo",
"ooooooo       oooooooooooooooooo"
};
