/* XPM */
static char *result[] = {
/* columns rows colors chars-per-pixel */
"32 32 4 1 ",
"  c #345551",
". c #36E377",
"X c #2EB082",
"o c None",
/* pixels */
"XXXXXXXXXXXXXXXXXXXXXXXXXXX   oo",
"XXXXXXXXXXXXXXXXXXXXXXXXXXX   oo",
"XXXXXXXXXXXXXXXXXXXXXXXXXXX   oo",
"XXXXXXXXXXXXXXXXXXXXXXXXXXX   oo",
"XXXXXXXXXXXXXXXXXXXXXXXXXXX   oo",
"XXXXXXXXXXXXXXXXXXXXXXXXXXX   oo",
"XXXXXXXXXXXXXXXXXXXXXXXXXXX   oo",
"XXXXXXXXXXXXXXXXXXXXXXXXXXX   oo",
"XXXXXXXXXXXXXXXXXXXXXXXXXXX   oo",
"XXXXXXXXXXXXXXXXXXXXXXXXXXX   oo",
"XXXXXXXXXXXXXXXXXXXXXXXXXXX   oo",
"XXXXXXXXXXXXXXXXXXXXXXXXXXX   oo",
"XXXXXXXXXXXXXXXXXXXXXXXXXXX   oo",
"XXXXXXXXXXXXXXXXXXXXXXXXXXX   oo",
"XXXXXXXXXXXXXXXXXXXXXXXXXXX   oo",
"XXXXXXXXXXXXXXXXXXXXXXXXXXX   oo",
"XXXXXXXXXXXXXXXXXXXXXXX..XX   oo",
"XXXXXXXXXXXXXXXXXXXXXXX..XX   oo",
"XXXXXXXXXXXXXXXXXXXXXXXXXXX     ",
"XXXXXXXXXXXXXXXXXXXXXXXXXXX     ",
"XXXXXXXXXXXXXXXXXXXXXXXXX...    ",
"XXXX.XXXXXXXXXXXXXXXXXXXX...    ",
"XXXX.XXXXXXXXXXXXXXXXXXXX...    ",
"XXXXXXXXXXXXXXXXXXXXX..XXXX     ",
"XXXXXXXXXXXXXXXXXXXXX..XXXX     ",
"XXXX...XXXXXXXXXXXXXXXXXXXX   oo",
"XXXX...XXXXXXXXXXXXXXXXXXXX   oo",
"    ...                       oo",
"                            oooo",
"                            oooo",
"oo       ooooooooooooooooooooooo",
"oo       ooooooooooooooooooooooo"
};
