/* XPM */
static char *result[] = {
/* columns rows colors chars-per-pixel */
"32 32 4 1 ",
"  c #345551",
". c #36E377",
"X c #2EB082",
"o c None",
/* pixels */
"oo   XXXXXXXXXXXXXXXXXXXXXXXXXXX",
"oo   XXXXXXXXXXXXXXXXXXXXXXXXXXX",
"     XXXXXXXXXXXXXXXXXXXXXXXXXXX",
"     XXXXXXXXXXXXXXXXXXXXXXXXXXX",
"    ...XXXXXXXXXXXXXXXXXXXXXXXXX",
"    ...XXXXXXX..XXXXXXXXXXXXXXXX",
"    ...XXXXXXX..XXXXXXXXXXXXXXXX",
"     XXXX..XXXXXXXXXXXXXXXXXXXXX",
"     XXXX..XXXXXXXXXXXXXXXXXXXXX",
"oo   XXXXXXXXXXXXXXXXXXXXXXXXXXX",
"oo   XXXXXXXXXXXXXXXXXXXXXXXXXXX",
"oo   XXXXXXX..XXXXXXXXXXXXXXXXXX",
"oo   XXXXXXXXXXXXXXXXXXXXXXXXXXX",
"oo   XXXXXXXXXXXXXXXXXXXXXXXXXXX",
"oo   XXXXXXXXXXXXXXXXXXXXXXXXXXX",
"oo   XXXXXXXXXXXXXXXXXXXXXXXXXXX",
"oo   XXXXXXXXXXXXXXXXXXXXXXXXXXX",
"oo   XXXXXXXXXXXXXXXXXXXXXXXXXXX",
"oo   XXXXXXXXXXXXXXXXXXXXXXXXXXX",
"oo   XXXXXXXXXXXXXXXXXXXXXXXXXXX",
"oo   XXXXXXXXXXXXXXXXXXXXXXXXXXX",
"oo   XXXXXXXXXXXXXXXXXXXXXXXXXXX",
"oo   XXXXXXXXXXXXXXXXXXXXXXXXXXX",
"oo   XXXXXXXXXXXXXXXXXXXXXXXXXXX",
"oo   XXXXXXXXXXXXXXXXXXXXXXXXXXX",
"oo   XXXXXXXXXXXXXXXXXXXXXXXXXXX",
"oo   XXXXXXXXXXXXXXXXXXXXXXXXXXX",
"oo   XXXXXXXXXXXXXXXXXXXXXXXXXXX",
"oo   XX..XXXXXXXXXXXXXXXXXXXXXXX",
"oo   XX..XXXXXXXXXXXXXXXXXXXXXXX",
"oo   XXXXXXXXXXXXXXXXXXXXXXXXXXX",
"oo   XXXXXXXXXXXXXXXXXXXXXXXXXXX"
};
