/* XPM */
static char *result[] = {
/* columns rows colors chars-per-pixel */
"32 32 4 1 ",
"  c #345551",
". c #36E377",
"X c #2EB082",
"o c None",
/* pixels */
"XXXXXXXXXXXXXXXXXXXXXXXXXXX   oo",
"XXXXXXXXXXXXXXXXXXXXXXXXXXX   oo",
"XXXXXXXXXXXXXXXXXXXXXXXXXXX   oo",
"XXXXXXXXXXXXXXXXXXXXXXXXXXX   oo",
"XXXXXXXXXXXXXXXXXXXXXXX..XX   oo",
"XXXXXXXXXXXXXXXXXXXXXXXXXXX   oo",
"XXXXXXXXXXXXXXXXXXXXXXXXXXX   oo",
"XXXXXXXXXXXXXXXXXXXXXXXXXXX   oo",
"XXXXXXXXXXXXXXXXXXXXXXXXXXX   oo",
"XXXXXXXXXXXXXXXXXXXXXXXXXXX   oo",
"XXXXXXXXXXXXXXXXXXXXXXXXXXX   oo",
"XXXXXXXXXXXXXXXXXXXXXXXXXXX   oo",
"XXXXXXXXXXXXXXXXXXXXXXXXXXX   oo",
"XXXXXXXXXXXXXXXXXXXXXXXXXXX   oo",
"XXXXXXXXXXXXXXXXXXXXXXXXXXX   oo",
"XXXXXXXXXXXXXXXXXXXXXXXXXXX   oo",
"XXXXXXXXXXXXXXXXXXXXXXXXXXX   oo",
"XXXXXXXXXXXXXXXXXXXXXXXXXXX   oo",
"XXXXXXXXXXXXXXXXXXXXXXXXXXX   oo",
"XXXXXXXXXXXXXXXXXXXXXXXXXXX   oo",
"XXXXXXXXXXXXXXXXXX..XXXXXXX   oo",
"XXXXXXXXXXXXXXXXXXXXXXXXXXX   oo",
"XXXXXXXXXXXXXXXXXXXXXXXXXXX   oo",
"XXXXXXXXXXXXXXXXXXXXX..XXXX     ",
"XXXXXXXXXXXXXXXXXXXXX..XXXX     ",
"XXXXXXXXXXXXXXXXXXXXXXXXX...    ",
"XXXXXXXXXXXXXXXXXXXXXXXXX...    ",
"XXXXXXXXXXXXXXXXXXXXXXXXX...    ",
"XXXXXXXXXXXXXXXXXXXX.XXXXXX     ",
"XXXXXXXXXXXXXXXXXXXX.XXXXXX     ",
"XXXXXXXXXXXXXXXXXXXXXXXXXXX   oo",
"XXXXXXXXXXXXXXXXXXXXXXXXXXX   oo"
};
