/* XPM */
static char *result[] = {
/* columns rows colors chars-per-pixel */
"32 32 4 1 ",
"  c #345551",
". c #36E377",
"X c #2EB082",
"o c None",
/* pixels */
"ooooooooooooooooooooooo       oo",
"ooooooooooooooooooooooo       oo",
"oooo                            ",
"oooo                            ",
"oo                       XXX    ",
"oo   XX..................XXX....",
"oo   XX..................XXX....",
"oo   ...........................",
"oo   ...........................",
"oo   ....XXXXXXXXXXXXXXXXXXXXXXX",
"oo   ....XXXXXXXXXXXXXXXXXXXXXXX",
"     XXXXXXXXXXXXXXXXXXXX..XXXXX",
"    ...XXXXXXXXXXXXXXXXXXXXXXXXX",
"    ...XXXXXXXXXXXXXXXXXXXXXXXXX",
"    ...XX..XXXXXXXXXXXXXXXXXXXXX",
"    ...XX..XXXXXXXXXXXXXXXXXXXXX",
"     XXXXXXXXXXXXXXXXXXXXXXXXXXX",
"     XXXXXXXXXXXXXXXXXXXXXXXXXXX",
"oo   XX..XXXXXXXXXXXXXXXXXXXXXXX",
"oo   XX..XXXXXXXXXXXXXXXXXXXXXXX",
"oo   XXXXXXXXXXXXXXXXXXXXXXXXXXX",
"oo   XXXXXXXXXXXXXXXXXXXXXXXXXXX",
"oo   XXXXXXXXXXXXXXXXXXXXXXXXXXX",
"oo   XXXXXXXXXXXXXXXXXXXXXXXXXXX",
"oo   XXXXXXXXXXXXXXXXXXXXXXXXXXX",
"oo   XXXXXXXXXXXXXXXXXXXXXXXXXXX",
"oo   XXXXXXXXXXXXXXXXXXXXXXXXXXX",
"oo   XXXXXXXXXXXXXXXXXXXXXXXXXXX",
"oo   XXXXXXXXXXXXXXXXXXXXXXXXXXX",
"oo   XXXXXXXXXXXXXXXXXXXXXXXXXXX",
"oo   XXXXXXXXXXXXXXXXXXXXXXXXXXX",
"oo   XXXXXXXXXXXXXXXXXXXXXXXXXXX"
};
