/* XPM */
static char *result[] = {
/* columns rows colors chars-per-pixel */
"32 32 4 1 ",
"  c #345551",
". c #36E377",
"X c #2EB082",
"o c None",
/* pixels */
"oooooooooooooooooo       ooooooo",
"oooooooooooooooooo       ooooooo",
"                            oooo",
"                            oooo",
"                    XXX       oo",
"....................XXX..XX   oo",
"....................XXX..XX   oo",
"...........................   oo",
"...........................   oo",
"XXXXXXXXXXXXXXXXXXXXXXX....   oo",
"XXXXXXXXXXXXXXXXXXXXXXX....   oo",
"XXXXXXXXXXXXXXXXXX..XXXXXXX   oo",
"XXXXXXXXXXXXXXXXXXXXXXXXXXX   oo",
"XXXXXXXXXXXXXXXXXXXXXXXXXXX   oo",
"XXXXXXXXXXXXXXXXXXXXXXXXXXX   oo",
"XXXXXXXXXXXXXXXXXXXXXXXXXXX   oo",
"XXXXXXXXXXXXXXXXXXXXXXX..XX   oo",
"XXXXXXXXXXXXXXXXXXXXXXX..XX   oo",
"XXXXXXXXXXXXXXXXXXXXXXXXXXX   oo",
"XXXXXXXXXXXXXXXXXXXXXXXXXXX   oo",
"XXXXXXXXXXXXXXXXXXXXXXXXXXX   oo",
"XXXXXXXXXXXXXXXXXXXXXXXXXXX   oo",
"XXXXXXXXXXXXXXXXXXXXXXXXXXX   oo",
"XXXXXXXXXXXXXXXXXXXXXXXXXXX     ",
"XXXXXXXXXXXXXXXXXXXXXXXXXXX     ",
"XXXXXXXXXXXXXXXXXXXXXXXXX...    ",
"XXXXXXXXXXXXXXXXXXXXXXXXX...    ",
"XXXXXXXXXXXXXXXXXXXXXXXXX...    ",
"XXXXXXXXXXXXXXXXXXXXXXXXXXX     ",
"XXXXXXXXXXXXXXXXXXXXXXXXXXX     ",
"XXXXXXXXXXXXXXXXXXXXXXXXXXX   oo",
"XXXXXXXXXXXXXXXXXXXXXXXXXXX   oo"
};
