/* XPM */
static char *result[] = {
/* columns rows colors chars-per-pixel */
"32 32 3 1 ",
"  c #345551",
". c #36E377",
"X c #2EB082",
/* pixels */
"XXXXXXXXXXXXXXXXXXXXXXXXXXXXXXXX",
"XXXXXXXXXXXXXXXXXXXXXXXXXXXXXXXX",
"XXXXXXXXXXXXXXXXXXXXXXXXXXXXXXXX",
"XXXXXXXXXXXXXXXXXXXXXXXXXXXXXXXX",
"XXXXXXXXXXXXXXXXXXXXXXXXXXXXXXXX",
"XXXXXXXXXXXXXXXXXXXXXXXXXXXXXXXX",
"XXXXXXXXXXXXXXXXXXXXXXXXXXXXXXXX",
"XXXXXXXXXXXXXXXXXX    XXXXXXXXXX",
"XXXXXXXXXXXXXXXXX      XXXXXXXXX",
"XXXXXXXXXXXXXXXX   ..   XXXXXXXX",
"XXXXXXXXXX    X   ....  XXXXXXXX",
"XXXXXXXXX        .....  XXXXXXXX",
"XXXXXXXX   ..    ...    XXXXXXXX",
"XXXXXXXX  ....   XX    XXXXXXXXX",
"XXXXXXXX  .....  XX  XXXXXXXXXXX",
"XXXXXXXX    ...  XX  XXXXXXXXXXX",
"XXXXXXXXX    XX  X.. XXXXXXXXXXX",
"XXXXXXXXXXX  XX  X.. XXXXXXXXXXX",
"XXXXXXXXXXX  XX  XX  XXXXXXXXXXX",
"XXXXXXXXXXX  XX  XX  XXXXXXXXXXX",
"XXXXXXXXXXX  XX  XX  XXXXXXXXXXX",
"XXXXXXXXXXX ..X  XX  XXXXXXXXXXX",
"XXXXXXXXXXX ..X  XX  XXXXXXXXXXX",
"XXXXXXXXXXX  XX  XX  XXXXXXXXXXX",
"XXXXXXXXXXX  XX  XX  XXXXXXXXXXX",
"XXXXXXXXXXXXXXXXXXXXXXXXXXXXXXXX",
"XXXXXXXXXXXXXXXXXXXXXXXXXXXXXXXX",
"XXXXXXXXXXXXXXXXXXXXXXXXXXXXXXXX",
"XXXXXXXXXXXXXXXXXXXXXXXXXXXXXXXX",
"XXXXXXXXXXXXXXXXXXXXXXXXXXXXXXXX",
"XXXXXXXXXXXXXXXXXXXXXXXXXXXXXXXX",
"XXXXXXXXXXXXXXXXXXXXXXXXXXXXXXXX"
};
