/* XPM */
static char *result[] = {
/* columns rows colors chars-per-pixel */
"32 32 5 1 ",
"  c #345551",
". c #9F5A52",
"X c #36E377",
"o c #CB815E",
"O c #2EB082",
/* pixels */
"OOOOOOOOOOOOOOOOOOOOOOOOOOOOOOOO",
"OOOOOOOOOOOOOOOOOOOOOOOOOOOOOOOO",
"OOOOOOOOOOOOOOOOOOOOOOOOOOOOOOOO",
"OOOOOOOOOOOOOOOOOOOOOOOOOOOOOOOO",
"OOOOOOOOOOOOOOOOOOOOOOOOOOOOOOOO",
"OOOOOOOOOOOOOOOOOOOOOOOOOOOOOOOO",
"OOOOOOOOOOOOOOOOOOOOOOOOOOOOOOOO",
"OOOOOOOOOOOOOOOOOOOOOOOOOOOOOOOO",
"OOOOOOOOOOOOOO    OOOOOOOOOOOOOO",
"OOOOOOOOOOOOO      OOOOOOOOOOOOO",
"OOOOOOOOOOOOO  XX  OOOOOOOOOOOOO",
"OOOOOOOOOOOO   XX   OOOOOOOOOOOO",
"OOOOOOOOOOOO  OOOO  OOOOOOOOOOOO",
"OOOOOOOOOOOO  XXXX  OOOOOOOOOOOO",
"OOOOOOOOOOO   XXXX   OOOOOOOOOOO",
"OOOOOOOOOOO  OOOOOO  OOOOOOOOOOO",
"OOOOOOOOOOO  OOOOOO  OOOOOOOOOOO",
"OOOOOOOOOOO  XXXXXX  OOOOOOOOOOO",
"OOOOOOOOOO   XXXXXX   OOOOOOOOOO",
"OOOOOOOOOO  OOOOOOOO  OOOOOOOOOO",
"OOOOOOOOOO  OOOOOOOO  OOOOOOOOOO",
"OOOOOOOOOO  OOOOOOOO  OOOOOOOOOO",
"OOOOOOOOOO     ..     OOOOOOOOOO",
"OOOOOOOOOOO    oo    OOOOOOOOOOO",
"OOOOOOOOOOOOO  oo  OOOOOOOOOOOOO",
"OOOOOOOOOOOOO  oo  OOOOOOOOOOOOO",
"OOOOOOOOOOOOOOOOOOOOOOOOOOOOOOOO",
"OOOOOOOOOOOOOOOOOOOOOOOOOOOOOOOO",
"OOOOOOOOOOOOOOOOOOOOOOOOOOOOOOOO",
"OOOOOOOOOOOOOOOOOOOOOOOOOOOOOOOO",
"OOOOOOOOOOOOOOOOOOOOOOOOOOOOOOOO",
"OOOOOOOOOOOOOOOOOOOOOOOOOOOOOOOO"
};
